<?xml version="1.0" encoding="UTF-8"?>
<svg version="1.1" xmlns="http://www.w3.org/2000/svg" width="241" height="214">
<path d="M0 0 C1.14922691 -0.00503792 1.14922691 -0.00503792 2.32167053 -0.01017761 C4.85573952 -0.01968138 7.38974242 -0.02163028 9.92382812 -0.02270508 C11.68355334 -0.02591752 13.44327828 -0.02928158 15.20300293 -0.03279114 C18.89168925 -0.03878058 22.58035213 -0.04063117 26.26904297 -0.04003906 C31.00047626 -0.03993733 35.73175987 -0.05360214 40.46315765 -0.07081127 C44.0970733 -0.08191643 47.73095255 -0.08395875 51.36488342 -0.08342934 C53.10962949 -0.08461121 54.85437644 -0.08904456 56.59910583 -0.0967617 C59.03623021 -0.10653386 61.47302686 -0.10369489 63.91015625 -0.09765625 C64.99497032 -0.10608551 64.99497032 -0.10608551 66.10169983 -0.11468506 C69.78144575 -0.09145782 71.3054773 0.04552979 74.45507812 2.14526367 C74.74686336 4.76711462 74.84388187 7.15270307 74.81152344 9.77612305 C74.81356781 10.56324173 74.81561218 11.35036041 74.81771851 12.16133118 C74.82073381 14.77079273 74.80222724 17.37962691 74.78320312 19.98901367 C74.78014667 21.79740238 74.77826969 23.60579343 74.77752686 25.41418457 C74.77291907 29.20728541 74.75847517 33.0001745 74.73632812 36.79321289 C74.70804538 41.66262599 74.69711716 46.53187213 74.69264603 51.40135956 C74.68849475 55.13647136 74.6786797 58.87154919 74.66677094 62.60664368 C74.66106153 64.40244778 74.65630505 66.19825517 74.65250397 67.99406433 C74.64565094 70.50090307 74.63202304 73.00760808 74.61621094 75.5144043 C74.61509308 76.26148148 74.61397522 77.00855865 74.61282349 77.77827454 C74.56977062 82.91587868 74.56977062 82.91587868 73.45507812 85.14526367 C69.88051236 86.33678559 66.63025512 86.29285848 62.91015625 86.29052734 C61.76092934 86.29556526 61.76092934 86.29556526 60.58848572 86.30070496 C58.05441673 86.31020872 55.52041383 86.31215763 52.98632812 86.31323242 C51.22660291 86.31644486 49.46687797 86.31980892 47.70715332 86.32331848 C44.018467 86.32930793 40.32980412 86.33115852 36.64111328 86.33056641 C31.90967999 86.33046467 27.17839638 86.34412948 22.4469986 86.36133862 C18.81308295 86.37244378 15.1792037 86.37448609 11.54527283 86.37395668 C9.80052676 86.37513855 8.05577981 86.3795719 6.31105042 86.38728905 C3.87392604 86.3970612 1.43712939 86.39422224 -1 86.38818359 C-2.08481407 86.39661285 -2.08481407 86.39661285 -3.19154358 86.4052124 C-6.8712895 86.38198517 -8.39532105 86.24499755 -11.54492188 84.14526367 C-11.83677992 81.55825308 -11.93376935 79.21063127 -11.90136719 76.62207031 C-11.90341156 75.84631149 -11.90545593 75.07055267 -11.90756226 74.27128601 C-11.9105778 71.69909324 -11.89206875 69.12753684 -11.87304688 66.55541992 C-11.86999015 64.77184712 -11.86811337 62.98827193 -11.86737061 61.20469666 C-11.8627625 57.4628692 -11.84831859 53.72125635 -11.82617188 49.97949219 C-11.79790958 45.17967936 -11.7869629 40.38003587 -11.78248978 35.58014774 C-11.77833476 31.89560751 -11.76851625 28.21110162 -11.75661469 24.5265789 C-11.75091113 22.75672112 -11.7461527 20.98686003 -11.74234772 19.21699715 C-11.73548155 16.74388955 -11.72184678 14.27091626 -11.70605469 11.79785156 C-11.70493683 11.0637204 -11.70381897 10.32958923 -11.70266724 9.57321167 C-11.67657472 6.49169465 -11.52727718 4.09232959 -10.54492188 1.14526367 C-6.97035611 -0.04625825 -3.72009887 -0.00233113 0 0 Z M6.45507812 33.14526367 C6.45507812 39.74526367 6.45507812 46.34526367 6.45507812 53.14526367 C7.44507812 53.14526367 8.43507813 53.14526367 9.45507812 53.14526367 C9.45507812 50.17526367 9.45507812 47.20526367 9.45507812 44.14526367 C11.10507813 44.14526367 12.75507812 44.14526367 14.45507812 44.14526367 C14.45507812 47.11526367 14.45507812 50.08526367 14.45507812 53.14526367 C15.44507813 53.14526367 16.43507813 53.14526367 17.45507812 53.14526367 C17.45507812 46.54526367 17.45507812 39.94526367 17.45507812 33.14526367 C16.46507812 33.14526367 15.47507812 33.14526367 14.45507812 33.14526367 C14.45507812 35.78526367 14.45507812 38.42526367 14.45507812 41.14526367 C12.80507812 41.14526367 11.15507813 41.14526367 9.45507812 41.14526367 C9.45507812 38.50526367 9.45507812 35.86526367 9.45507812 33.14526367 C8.46507812 33.14526367 7.47507812 33.14526367 6.45507812 33.14526367 Z M20.45507812 33.14526367 C20.45507812 34.13526367 20.45507812 35.12526367 20.45507812 36.14526367 C21.77507812 36.14526367 23.09507813 36.14526367 24.45507812 36.14526367 C24.45507812 41.75526367 24.45507812 47.36526367 24.45507812 53.14526367 C25.44507813 53.14526367 26.43507813 53.14526367 27.45507812 53.14526367 C27.45507812 47.53526367 27.45507812 41.92526367 27.45507812 36.14526367 C28.77507812 36.14526367 30.09507813 36.14526367 31.45507812 36.14526367 C31.45507812 35.15526367 31.45507812 34.16526367 31.45507812 33.14526367 C27.82507813 33.14526367 24.19507813 33.14526367 20.45507812 33.14526367 Z M34.45507812 33.14526367 C34.12507813 39.74526367 33.79507813 46.34526367 33.45507812 53.14526367 C34.11507812 53.14526367 34.77507812 53.14526367 35.45507812 53.14526367 C35.78507812 49.51526367 36.11507812 45.88526367 36.45507812 42.14526367 C37.11507812 42.14526367 37.77507812 42.14526367 38.45507812 42.14526367 C38.78507812 45.11526367 39.11507812 48.08526367 39.45507812 51.14526367 C40.44507813 51.14526367 41.43507813 51.14526367 42.45507812 51.14526367 C43.64795224 47.2684228 44.45507812 44.22904444 44.45507812 40.14526367 C45.11507812 40.14526367 45.77507812 40.14526367 46.45507812 40.14526367 C46.45507812 44.43526367 46.45507812 48.72526367 46.45507812 53.14526367 C47.11507812 53.14526367 47.77507812 53.14526367 48.45507812 53.14526367 C48.45507812 46.54526367 48.45507812 39.94526367 48.45507812 33.14526367 C47.13507813 33.14526367 45.81507813 33.14526367 44.45507812 33.14526367 C44.11687647 34.72756427 43.78471873 36.31115742 43.45507812 37.89526367 C43.26945312 38.77698242 43.08382812 39.65870117 42.89257812 40.56713867 C42.34354138 43.36670333 42.34354138 43.36670333 42.45507812 47.14526367 C41.79507813 47.14526367 41.13507813 47.14526367 40.45507812 47.14526367 C40.39449219 46.55358398 40.33390625 45.9619043 40.27148438 45.35229492 C39.83495441 41.23548159 39.36836466 37.18981834 38.45507812 33.14526367 C37.13507813 33.14526367 35.81507813 33.14526367 34.45507812 33.14526367 Z M53.45507812 33.14526367 C53.45507812 39.74526367 53.45507812 46.34526367 53.45507812 53.14526367 C56.09507812 53.14526367 58.73507813 53.14526367 61.45507812 53.14526367 C61.45507812 52.15526367 61.45507812 51.16526367 61.45507812 50.14526367 C59.80507812 50.14526367 58.15507812 50.14526367 56.45507812 50.14526367 C56.45507812 44.53526367 56.45507812 38.92526367 56.45507812 33.14526367 C55.46507812 33.14526367 54.47507812 33.14526367 53.45507812 33.14526367 Z " fill="#FC7D13" transform="translate(95.544921875,-0.145263671875)"/>
<path d="M0 0 C7.0228125 -0.0928125 7.0228125 -0.0928125 14.1875 -0.1875 C15.65598389 -0.21481201 17.12446777 -0.24212402 18.63745117 -0.27026367 C19.80252197 -0.27775635 20.96759277 -0.28524902 22.16796875 -0.29296875 C23.35672607 -0.3086792 24.5454834 -0.32438965 25.77026367 -0.34057617 C29.32931257 0.03472606 31.15013545 0.88018451 34 3 C36.16232881 5.75883331 36.93942763 7.51542103 37.375 11 C36.95045234 14.39638127 36.02995698 16.2673656 34 19 C33.01 19.495 33.01 19.495 32 20 C32.94875 20.5775 33.8975 21.155 34.875 21.75 C39.07913669 24.77697842 39.07913669 24.77697842 40 28 C40.45599783 33.01597611 40.12987123 36.00671602 37 40 C32.11347884 44.39786904 28.8446913 45.12595935 22.36328125 45.09765625 C20.60818237 45.09390991 20.60818237 45.09390991 18.81762695 45.09008789 C16.58758911 45.07643188 16.58758911 45.07643188 14.3125 45.0625 C9.589375 45.041875 4.86625 45.02125 0 45 C0 30.15 0 15.3 0 0 Z M13 8 C13 11.3 13 14.6 13 18 C14.44375 17.87625 15.8875 17.7525 17.375 17.625 C18.18710937 17.55539063 18.99921875 17.48578125 19.8359375 17.4140625 C22.20334191 17.17107412 22.20334191 17.17107412 24 15 C23.71016731 11.69316534 23.71016731 11.69316534 22 9 C19.01110641 8.54234333 16.01030352 8.29679049 13 8 Z M13 26 C13 29.63 13 33.26 13 37 C15.6296875 36.8453125 15.6296875 36.8453125 18.3125 36.6875 C19.29863281 36.62949219 20.28476562 36.57148438 21.30078125 36.51171875 C24.25835305 35.95102135 25.29358067 35.45039454 27 33 C26.75794651 29.68181015 26.75794651 29.68181015 25 27 C22.98405418 26.76572222 20.961526 26.58663876 18.9375 26.4375 C17.83277344 26.35371094 16.72804688 26.26992187 15.58984375 26.18359375 C14.73519531 26.12300781 13.88054688 26.06242187 13 26 Z " fill="#FB7C12" transform="translate(0,108)"/>
<path d="M0 0 C4.49625 -0.061875 8.9925 -0.12375 13.625 -0.1875 C15.03217285 -0.21481201 16.4393457 -0.24212402 17.88916016 -0.27026367 C19.01112793 -0.27775635 20.1330957 -0.28524902 21.2890625 -0.29296875 C23.00150146 -0.31653442 23.00150146 -0.31653442 24.74853516 -0.34057617 C29.4696482 0.15393897 32.73239845 1.965904 36.375 4.9375 C38.96442429 9.81756886 38.71081252 14.59929046 38 20 C36.09131701 24.2754499 33.53503804 27.09317757 29.34765625 29.3203125 C24.06228481 30.85051987 18.43176257 30.20692429 13 30 C13 34.95 13 39.9 13 45 C8.71 45 4.42 45 0 45 C0 30.15 0 15.3 0 0 Z M13 9 C13 12.96 13 16.92 13 21 C19.38899228 20.64508889 19.38899228 20.64508889 25 18 C25.41666667 15 25.41666667 15 25 12 C22.50494038 9.50494038 21.32671112 9.64051624 17.875 9.375 C16.26625 9.25125 14.6575 9.1275 13 9 Z " fill="#FB7C12" transform="translate(10,168)"/>
<path d="M0 0 C4.46260649 2.60249201 6.36933448 5.25176115 8.33984375 10.09375 C9.09530658 16.02175116 9.53238253 22.74429794 6.77734375 28.21875 C2.67967539 33.0518973 0.00497777 34.83771092 -6.23828125 35.4375 C-12.90839826 35.59444393 -17.83010196 35.61731566 -23.66015625 32.09375 C-28.02734714 27.60524825 -29.4738517 23.40392643 -29.97265625 17.21875 C-29.80779286 12.14677617 -28.7051134 7.3510251 -25.23046875 3.515625 C-18.6062636 -2.21876155 -8.18513612 -2.78847515 0 0 Z M-15.53515625 9.15625 C-17.87535309 13.186589 -17.93752524 16.96293797 -16.84765625 21.40625 C-15.81589763 24.17867136 -15.81589763 24.17867136 -13.66015625 26.09375 C-10.2022961 26.59382794 -10.2022961 26.59382794 -6.66015625 26.09375 C-4.56432086 23.98346058 -3.74319692 22.60176348 -3.26171875 19.65625 C-3.26945312 18.810625 -3.2771875 17.965 -3.28515625 17.09375 C-3.27742188 16.248125 -3.2696875 15.4025 -3.26171875 14.53125 C-3.74295473 11.58721814 -4.57071102 10.20726718 -6.66015625 8.09375 C-10.07497236 7.66689799 -12.48547454 7.42809703 -15.53515625 9.15625 Z " fill="#FB7C12" transform="translate(112.66015625,178.90625)"/>
<path d="M0 0 C0.89009766 -0.020625 1.78019531 -0.04125 2.69726562 -0.0625 C7.91572713 -0.09344714 11.77585535 0.14225645 16.1875 3.25 C19.06250953 7.12625876 19.5484435 9.86364019 19.48046875 14.64453125 C19.4659668 16.44760742 19.4659668 16.44760742 19.45117188 18.28710938 C19.42603516 19.53298828 19.40089844 20.77886719 19.375 22.0625 C19.35469727 23.96032227 19.35469727 23.96032227 19.33398438 25.89648438 C19.29868318 29.01475643 19.24936819 32.13216042 19.1875 35.25 C14.1875 35.25 9.1875 35.25 4.1875 35.25 C3.1975 35.745 3.1975 35.745 2.1875 36.25 C0.39890489 36.37207871 -1.39478381 36.42548448 -3.1875 36.4375 C-4.14398438 36.45167969 -5.10046875 36.46585938 -6.0859375 36.48046875 C-8.88790017 36.24362663 -10.46153691 35.75461637 -12.8125 34.25 C-15.11717552 31.36915561 -15.78190098 29.49042089 -16.25 25.8125 C-15.70873623 21.40506647 -14.84656573 19.50607054 -11.8125 16.25 C-5.77579185 12.97960414 0.47387712 12.87157032 7.1875 13.25 C6.5275 11.93 5.8675 10.61 5.1875 9.25 C-0.7525 9.25 -6.6925 9.25 -12.8125 9.25 C-12.8125 6.61 -12.8125 3.97 -12.8125 1.25 C-8.54793146 -0.17152285 -4.46754315 0.02554707 0 0 Z M-3.8125 23.25 C-3.31493908 26.00641416 -3.31493908 26.00641416 -1.8125 28.25 C2.83838715 28.55523962 2.83838715 28.55523962 7.1875 27.25 C7.1875 24.94 7.1875 22.63 7.1875 20.25 C2.51288149 19.92386382 0.02075617 20.54417212 -3.8125 23.25 Z " fill="#FB7C12" transform="translate(59.8125,117.75)"/>
<path d="M0 0 C2.87682461 1.4848127 4.59699311 3.35394026 6.50390625 5.9375 C7.56640625 9.3125 7.56640625 9.3125 7.56640625 19.3125 C-0.68359375 19.3125 -8.93359375 19.3125 -17.43359375 19.3125 C-15.11107949 24.19745525 -15.11107949 24.19745525 -12.43359375 25.3125 C-10.47810119 25.43507461 -8.51788757 25.48802388 -6.55859375 25.5 C-5.50929687 25.51417969 -4.46 25.52835938 -3.37890625 25.54296875 C-0.44985411 25.31377236 1.03979145 24.69612239 3.56640625 23.3125 C4.55640625 23.3125 5.54640625 23.3125 6.56640625 23.3125 C6.56640625 26.6125 6.56640625 29.9125 6.56640625 33.3125 C1.96213001 35.61925162 -2.2103512 35.67918333 -7.24609375 35.6875 C-8.01501953 35.71199219 -8.78394531 35.73648438 -9.57617188 35.76171875 C-15.27500637 35.79057361 -19.71305213 34.58642403 -24.43359375 31.3125 C-29.06381834 25.61376205 -30.18288247 20.58741234 -29.43359375 13.3125 C-27.56837381 7.52050125 -24.86626735 3.5563348 -19.73046875 0.19921875 C-14.05399674 -1.99220837 -5.84734882 -1.65189951 0 0 Z M-16.43359375 9.1875 C-17.5755261 11.22268344 -17.5755261 11.22268344 -17.43359375 13.3125 C-13.14359375 13.3125 -8.85359375 13.3125 -4.43359375 13.3125 C-4.87889355 8.68230013 -4.87889355 8.68230013 -6.43359375 7.3125 C-11.96505203 6.60181606 -11.96505203 6.60181606 -16.43359375 9.1875 Z " fill="#FB7C12" transform="translate(223.43359375,178.6875)"/>
<path d="M0 0 C4.29 0 8.58 0 13 0 C18.08928571 12.05357143 18.08928571 12.05357143 20 18 C22.26546852 14.60179721 23.38901628 11.16057722 24.625 7.3125 C24.85445312 6.61060547 25.08390625 5.90871094 25.3203125 5.18554688 C25.88429209 3.45835938 26.44269339 1.72935218 27 0 C31.29 0 35.58 0 40 0 C36.19357281 10.60123363 31.98712188 21.02902044 27.6875 31.4375 C27.41538696 32.09849701 27.14327393 32.75949402 26.86291504 33.44052124 C26.08211263 35.3352743 25.29761919 37.2284504 24.51171875 39.12109375 C24.05240967 40.2289624 23.59310059 41.33683105 23.11987305 42.47827148 C22 45 22 45 21 46 C18.81360547 46.07258946 16.62499611 46.08373783 14.4375 46.0625 C12.64119141 46.04896484 12.64119141 46.04896484 10.80859375 46.03515625 C9.88175781 46.02355469 8.95492187 46.01195312 8 46 C8.30035156 45.35933594 8.60070312 44.71867187 8.91015625 44.05859375 C9.29042969 43.19363281 9.67070312 42.32867187 10.0625 41.4375 C10.44535156 40.59058594 10.82820312 39.74367187 11.22265625 38.87109375 C12.82011794 32.97092118 10.63212835 27.49688367 8.49609375 21.97265625 C8.2533522 21.33887558 8.01061066 20.70509491 7.76051331 20.05210876 C6.99300425 18.05286139 6.21546155 16.0577 5.4375 14.0625 C4.91143757 12.69752435 4.38604061 11.33229203 3.86132812 9.96679688 C2.58189224 6.6415315 1.29343528 3.31984898 0 0 Z " fill="#FB7C12" transform="translate(145,119)"/>
<path d="M0 0 C0.75087891 -0.00773437 1.50175781 -0.01546875 2.27539062 -0.0234375 C6.48752924 -0.00861907 9.71753835 0.32369715 13.5625 2.25 C13.5625 5.22 13.5625 8.19 13.5625 11.25 C7.8125 10.375 7.8125 10.375 5.5625 9.25 C3.85547265 9.18003986 2.14581997 9.16559846 0.4375 9.1875 C-0.47257812 9.19652344 -1.38265625 9.20554687 -2.3203125 9.21484375 C-3.01898438 9.22644531 -3.71765625 9.23804687 -4.4375 9.25 C-4.7675 10.24 -5.0975 11.23 -5.4375 12.25 C-4.13425781 12.39695313 -4.13425781 12.39695313 -2.8046875 12.546875 C8.8473723 14.05877538 8.8473723 14.05877538 13.5625 18.25 C15.17984652 21.48469305 15.1409335 24.75340198 14.5625 28.25 C12.87532727 31.45632826 10.63641534 33.67594344 7.4140625 35.3984375 C3.59823701 36.53795799 0.08471723 36.54128289 -3.875 36.5 C-4.61298828 36.50773437 -5.35097656 36.51546875 -6.11132812 36.5234375 C-10.60299563 36.50746713 -14.2079467 35.93914015 -18.4375 34.25 C-18.4375 30.95 -18.4375 27.65 -18.4375 24.25 C-15.83875125 24.69549979 -13.63158057 25.1557323 -11.25 26.3125 C-7.02063778 27.72228741 -2.85688194 27.40446383 1.5625 27.25 C1.5625 26.59 1.5625 25.93 1.5625 25.25 C0.76585937 25.07984375 -0.03078125 24.9096875 -0.8515625 24.734375 C-6.82736659 23.36764608 -11.69829204 22.22068775 -16.4375 18.25 C-18.17623643 14.77252713 -18.02823264 11.0438163 -17.4375 7.25 C-12.48654471 0.78625282 -7.82246382 -0.08016188 0 0 Z " fill="#FC7C12" transform="translate(226.4375,117.75)"/>
<path d="M0 0 C1.11084961 0.02707031 1.11084961 0.02707031 2.24414062 0.0546875 C4.0591571 0.10152663 5.87350166 0.17326211 7.6875 0.25 C7.6875 3.22 7.6875 6.19 7.6875 9.25 C4.3875 9.58 1.0875 9.91 -2.3125 10.25 C-2.6425 11.24 -2.9725 12.23 -3.3125 13.25 C-0.6725 13.25 1.9675 13.25 4.6875 13.25 C4.6875 15.56 4.6875 17.87 4.6875 20.25 C2.0475 20.25 -0.5925 20.25 -3.3125 20.25 C-3.3125 29.16 -3.3125 38.07 -3.3125 47.25 C-7.2725 47.25 -11.2325 47.25 -15.3125 47.25 C-15.3125 38.34 -15.3125 29.43 -15.3125 20.25 C-16.6325 20.25 -17.9525 20.25 -19.3125 20.25 C-19.3125 17.94 -19.3125 15.63 -19.3125 13.25 C-17.9925 13.25 -16.6725 13.25 -15.3125 13.25 C-15.22613281 12.64671875 -15.13976562 12.0434375 -15.05078125 11.421875 C-14.84001953 10.22304687 -14.84001953 10.22304687 -14.625 9 C-14.49738281 8.21109375 -14.36976563 7.4221875 -14.23828125 6.609375 C-11.58953151 -0.14102517 -6.30099692 -0.29280772 0 0 Z " fill="#FB7C13" transform="translate(144.3125,165.75)"/>
<path d="M0 0 C3.96 0 7.92 0 12 0 C12 15.51 12 31.02 12 47 C8.04 47 4.08 47 0 47 C0 31.49 0 15.98 0 0 Z " fill="#FC7D13" transform="translate(176,166)"/>
<path d="M0 0 C3.96 0 7.92 0 12 0 C12.33 0.66 12.66 1.32 13 2 C13.495 1.67 13.99 1.34 14.5 1 C18.09090894 -0.43636358 21.14456127 -0.12851462 25 0 C25 2.97 25 5.94 25 9 C21.04 9.66 17.08 10.32 13 11 C12.67 18.59 12.34 26.18 12 34 C8.04 34 4.08 34 0 34 C0 22.78 0 11.56 0 0 Z " fill="#FC7C12" transform="translate(55,179)"/>
<path d="M0 0 C3.96 0 7.92 0 12 0 C12.33 0.66 12.66 1.32 13 2 C13.495 1.67 13.99 1.34 14.5 1 C18.09090894 -0.43636358 21.14456127 -0.12851462 25 0 C25 2.97 25 5.94 25 9 C21.04 9.66 17.08 10.32 13 11 C12.67 18.59 12.34 26.18 12 34 C8.04 34 4.08 34 0 34 C0 22.78 0 11.56 0 0 Z " fill="#FC7C12" transform="translate(119,119)"/>
<path d="M0 0 C3.96 0 7.92 0 12 0 C12.33 0.66 12.66 1.32 13 2 C13.495 1.67 13.99 1.34 14.5 1 C18.09090894 -0.43636358 21.14456127 -0.12851462 25 0 C25 2.97 25 5.94 25 9 C21.04 9.66 17.08 10.32 13 11 C12.67 18.59 12.34 26.18 12 34 C8.04 34 4.08 34 0 34 C0 22.78 0 11.56 0 0 Z " fill="#FC7C12" transform="translate(88,119)"/>
<path d="M0 0 C3.96 0 7.92 0 12 0 C12 11.22 12 22.44 12 34 C8.04 34 4.08 34 0 34 C0 22.78 0 11.56 0 0 Z " fill="#FC7D13" transform="translate(155,179)"/>
<path d="M0 0 C3.63 0 7.26 0 11 0 C10.8590651 2.43787385 10.71245458 4.87517853 10.5625 7.3125 C10.50352539 8.34793945 10.50352539 8.34793945 10.44335938 9.40429688 C10.25072585 12.47161535 9.97677283 15.06968152 9 18 C6.36 18 3.72 18 1 18 C0.10101383 11.93184334 -0.08522169 6.13596133 0 0 Z " fill="#FB7C12" transform="translate(190,106)"/>
<path d="M0 0 C4.29 0 8.58 0 13 0 C13 2.64 13 5.28 13 8 C8.71 8 4.42 8 0 8 C0 5.36 0 2.72 0 0 Z " fill="#FC7D13" transform="translate(154,166)"/>
</svg>
